# AST/ASF file generated using VICON BodyLanguage
# -----------------------------------------------
:version 1.10
:name VICON
:units
  mass 1.0
  length 0.45
  angle deg
:documentation
   .ast/.asf automatically generated from VICON data using
   VICON BodyBuilder and BodyLanguage model FoxedUp or BRILLIANT.MOD
:root
   order TX TY TZ RX RY RZ
   axis XYZ
   position 0 0 0  
   orientation 0 0 0 
:bonedata
  begin
     id 1 
     name lhipjoint
     direction 0.62366 -0.717238 0.310833 
     length 2.53602 
     axis 0 0 0  XYZ
  end
  begin
     id 2 
     name lfemur
     direction 0.34202 -0.939693 0  
     length 7.40817  
     axis 0 0 20  XYZ
    dof rx ry rz
    limits (-160.0 20.0)
           (-70.0 70.0)
           (-60.0 70.0)
  end
  begin
     id 3 
     name ltibia
     direction 0.34202 -0.939693 0   
     length 7.7045   
     axis 0 0 20   XYZ
    dof rx
    limits (-10.0 170.0)
  end
  begin
     id 4 
     name lfoot
     direction 0.0673888 -0.185149 0.980397   
     length 2.09456   
     axis -90 7.62852e-016 20   XYZ
    dof rx rz
    limits (-45.0 90.0)
           (-70.0 20.0)
  end
  begin
     id 5 
     name ltoes
     direction 1.53575e-011 -4.21994e-011 1   
     length 1.05543   
     axis -90 7.62852e-016 20   XYZ
    dof rx
    limits (-90.0 20.0)
  end
  begin
     id 6 
     name rhipjoint
     direction -0.489018 -0.800347 0.346851   
     length 2.27268  
     axis 0 0 0  XYZ 
  end
  begin
     id 7 
     name rfemur
     direction -0.34202 -0.939693 0   
     length 7.55487   
     axis 0 0 -20   XYZ
    dof rx ry rz
    limits (-160.0 20.0)
           (-70.0 70.0)
           (-70.0 60.0)
  end
  begin
     id 8 
     name rtibia
     direction -0.34202 -0.939693 0   
     length 7.78969   
     axis 0 0 -20   XYZ
    dof rx
    limits (-10.0 170.0)
 end
 begin
     id 9 
     name rfoot
     direction -0.0859318 -0.236096 0.967923   
     length 2.19143  
     axis -90 -7.62852e-016 -20   XYZ
    dof rx rz
    limits (-45.0 90.0)
           (-20.0 70.0)
  end
  begin
     id 10 
     name rtoes
     direction -1.53538e-011 -4.21989e-011 1   
     length 1.09845   
     axis -90 -7.62852e-016 -20   XYZ
    dof rx
    limits (-90.0 20.0)
  end
  begin
     id 11 
     name lowerback
     direction -0.00762546 0.998978 -0.0445553   
     length 1.98161   
     axis 0 0 0   XYZ
    dof rx ry rz
    limits (-20.0 45.0)
           (-30.0 30.0)
           (-30.0 30.0)
  end
  begin
     id 12 
     name upperback
     direction 0.0422361 0.998867 -0.0219156   
     length 1.97558   
     axis 0 0 0   XYZ
    dof rx ry rz
    limits (-20.0 45.0)
           (-30.0 30.0)
           (-30.0 30.0)
  end
  begin
     id 13 
     name thorax
     direction 0.0442465 0.999021 7.47603e-005   
     length 1.97799   
     axis 0 0 0   XYZ
    dof rx ry rz
    limits (-20.0 45.0)
           (-30.0 30.0)
           (-30.0 30.0)
  end
  begin
     id 14 
     name lowerneck
     direction 0.00312169 0.984641 0.174564   
     length 1.78995   
     axis 0 0 0   XYZ
    dof rx ry rz
    limits (-20.0 45.0)
           (-30.0 30.0)
           (-30.0 30.0)
  end
  begin
     id 15 
     name upperneck
     direction -0.0383028 0.985255 -0.166749   
     length 1.83053   
     axis 0 0 0   XYZ
    dof rx ry rz
    limits (-20.0 45.0)
           (-30.0 30.0)
           (-30.0 30.0)
  end
  begin
     id 16
     name head
     direction -0.0129546 0.997059 -0.0755386  
     length 1.84088  
     axis 0 0 0   XYZ
    dof rx ry rz
    limits (-20.0 45.0)
           (-30.0 30.0)
           (-30.0 30.0)
  end
  begin
     id 17 
     name lclavicle
     direction 0.912857 0.370519 -0.171488  
     length 3.51279  
     axis 0 0 0   XYZ
    dof ry rz
    limits (-20.0 10.0)
           (0.0 20.0)
  end
  begin
     id 18 
     name lhumerus
     direction 1 -4.48962e-011 3.64361e-027   
     length 4.95663   
     axis 180 -30 -90   XYZ
    dof rx ry rz
    limits (-60.0 90.0)
           (-90.0 90.0)
           (-90.0 90.0)
  end
  begin
     id 19
     name lradius
     direction 1 -4.48974e-011 5.97202e-027   
     length 3.38177   
     axis 180 -30 -90   XYZ
    dof rx
    limits (-10.0 170.0)
  end
  begin
     id 20
     name lwrist
     direction 1 -4.4896e-011 9.83288e-027   
     length 1.69088   
     axis -9.31221e-015 90 90   XYZ
    dof ry
    limits (-180.0 0.0)
 end
  begin
     id 21 
     name lhand
     direction 1 -4.4902e-011 1.96551e-026   
     length 0.662909   
     axis -1.25475e-014 90 90   XYZ
    dof rx rz
    limits (-90.0 90.0)
           (-45.0 45.0)
  end
  begin
     id 22 
     name lfingers
     direction 1 -4.48971e-011 3.93277e-026   
     length 0.534454   
     axis -2.50945e-014 90 90   XYZ
    dof rx
    limits (0.0 90.0)
  end
  begin
     id 23
     name lthumb
     direction 0.707107 -6.34933e-011 0.707107   
     length 0.767373   
     axis -90 45 -4.80359e-014   XYZ
    dof rx rz
    limits (-45.0 45.0)
           (-45.0 45.0)
  end
  begin
     id 24 
     name rclavicle
     direction -0.900919 0.395364 -0.178976   
     length 3.40627  
     axis 0 0 0   XYZ 
    dof ry rz
    limits (-10.0 20.0)
           (-20.0 0.0)
  end
  begin
     id 25 
     name rhumerus
     direction -1 -4.48969e-011 1.03875e-027  
     length 5.08365   
     axis 180 30 90   XYZ
    dof rx ry rz
    limits (-90.0 60.0)
           (-90.0 90.0)
           (-90.0 90.0)
  end
  begin
     id 26 
     name rradius
     direction -1 -4.48951e-011 5.02733e-027   
     length 3.35984   
     axis 180 30 90   XYZ
    dof rx
    limits (-10.0 170.0)
  end
  begin
     id 27 
     name rwrist
     direction -1 -4.49011e-011 9.82828e-027   
     length 1.67992   
     axis -9.31221e-015 -90 -90   XYZ
    dof ry
    limits (-180.0 0.0)
  end
  begin
     id 28
     name rhand
     direction -1 -4.48894e-011 1.96774e-026   
     length 0.820764   
     axis -1.25475e-014 -90 -90   XYZ
    dof rx rz
    limits (-90.0 90.0)
           (-45.0 45.0)
  end
  begin
     id 29
     name rfingers
     direction -1 -4.49095e-011 3.92833e-026   
     length 0.661721   
     axis -2.50945e-014 -90 -90   XYZ
    dof rx
    limits (0.0 90.0)
  end
  begin
     id 30
     name rthumb
     direction -0.707107 -6.34881e-011 0.707107   
     length 0.950103   
     axis -90 -45 4.80359e-014   XYZ
    dof rx rz
    limits (-45.0 45.0)
           (-45.0 45.0)
  end
:hierarchy
  begin
    root lhipjoint rhipjoint lowerback
    lhipjoint lfemur
    lfemur ltibia
    ltibia lfoot
    lfoot ltoes
    rhipjoint rfemur
    rfemur rtibia
    rtibia rfoot
    rfoot rtoes
    lowerback upperback
    upperback thorax
    thorax lowerneck lclavicle rclavicle
    lowerneck upperneck
    upperneck head
    lclavicle lhumerus
    lhumerus lradius
    lradius lwrist
    lwrist lhand lthumb
    lhand lfingers
    rclavicle rhumerus
    rhumerus rradius
    rradius rwrist
    rwrist rhand rthumb
    rhand rfingers
  end

#!OML:ASF I:\golf\golf\golf 2\Subject 1\2002-09-07\Subject1.ASF
:FULLY-SPECIFIED
:DEGREES
155
root 0.92024 17.9655 -5.56584 11.0929 -5.6365 -5.88557
lowerback -5.78588 1.00391 -2.86157
upperback 0.374896 1.44238 2.67454
thorax 3.49552 0.640853 4.50996
lowerneck -13.7815 3.38778 2.27604
upperneck 42.995 8.87027 -9.37879
head 19.6474 2.62933 -3.27601
rclavicle 5.49143e-015 8.54774e-015
rhumerus -27.8 0.905465 -86.0106
rradius 26.619
rwrist -8.49172
rhand -20.409 13.0679
rfingers 7.12502
rthumb 5.94498 -16.8287
lclavicle 5.49143e-015 8.54774e-015
lhumerus -25.8132 -2.69412 88.9726
lradius 25.5536
lwrist 2.2014
lhand -10.0493 30.3995
lfingers 7.12502
lthumb 15.9362 59.7639
rfemur -17.947 2.77699 19.0265
rtibia 27.4994
rfoot -13.1297 -7.46495
rtoes -12.6427
lfemur -18.5001 2.81268 -14.6394
ltibia 31.8715
lfoot -18.1806 8.15327
ltoes -10.8815
156
root 0.931722 17.9656 -5.57202 11.1583 -5.58496 -5.89571
lowerback -5.5977 1.00987 -2.84084
upperback 0.389506 1.44837 2.59148
thorax 3.40667 0.646774 4.40654
lowerneck -13.7501 3.39828 2.33605
upperneck 42.9765 8.85266 -9.35659
head 19.6242 2.63606 -3.27839
rclavicle 1.24489e-014 2.24627e-014
rhumerus -27.7305 1.02356 -86.1022
rradius 26.5587
rwrist -8.61704
rhand -20.3801 13.1966
rfingers 7.12502
rthumb 5.97282 -16.6993
lclavicle 1.24489e-014 2.24627e-014
lhumerus -25.8031 -2.59726 88.7944
lradius 25.799
lwrist 1.98784
lhand -9.63561 31.3355
lfingers 7.12502
lthumb 16.3345 60.6676
rfemur -18.1411 2.71151 19.0152
rtibia 27.6965
rfoot -13.1217 -7.49497
rtoes -12.8231
lfemur -18.6736 3.32712 -14.763
ltibia 31.9303
lfoot -18.0982 8.1333
ltoes -13.168
157
root 0.946488 17.9632 -5.5764 11.2123 -5.60971 -5.79573
lowerback -5.43109 1.05716 -2.9169
upperback 0.415113 1.51702 2.48535
thorax 3.33367 0.681829 4.33976
lowerneck -13.7347 3.37806 2.3906
upperneck 42.9747 8.81948 -9.39452
head 19.6215 2.62821 -3.3145
rclavicle -3.67752e-015 1.63003e-014
rhumerus -27.6754 0.970259 -86.0902
rradius 26.4951
rwrist -8.54024
rhand -20.3771 13.4055
rfingers 7.12502
rthumb 5.97577 -16.4902
lclavicle -3.67752e-015 1.63003e-014
lhumerus -25.7784 -2.62427 88.7136
lradius 26.119
lwrist 1.90101
lhand -9.10882 32.8133
lfingers 7.12502
lthumb 16.8417 62.1029
rfemur -18.3615 2.50433 18.8574
rtibia 27.9188
rfoot -13.1117 -7.29625
rtoes -12.5456
lfemur -18.784 3.45283 -14.9557
ltibia 31.9721
lfoot -18.1525 8.07299
ltoes -13.369
158
root 0.961136 17.9627 -5.58092 11.2836 -5.60359 -5.69419
lowerback -5.3712 1.08776 -3.09182
upperback 0.472697 1.56877 2.46377
thorax 3.35086 0.703333 4.41986
lowerneck -13.6599 3.36303 2.36724
upperneck 42.9288 8.83501 -9.47616
head 19.5783 2.62426 -3.34531
rclavicle 1.13804e-014 -1.13307e-014
rhumerus -27.5978 0.945636 -85.9305
rradius 26.4822
rwrist -8.39286
rhand -20.424 13.4739
rfingers 7.12502
rthumb 5.93045 -16.4231
lclavicle 1.13804e-014 -1.13307e-014
lhumerus -25.6742 -2.47699 88.7104
lradius 25.9761
lwrist 2.23611
lhand -10.0154 32.5579
lfingers 7.12502
lthumb 15.9688 61.9197
rfemur -18.6132 2.30639 18.6973
rtibia 28.1607
rfoot -13.0943 -7.08616
rtoes -12.0544
lfemur -18.9175 3.50429 -15.137
ltibia 32.0007
lfoot -18.1759 8.07023
ltoes -13.752
159
root 0.973285 17.9633 -5.58573 11.351 -5.50205 -5.71196
lowerback -5.36975 1.12282 -3.13961
upperback 0.588068 1.61877 2.45598
thorax 3.4638 0.722766 4.44514
lowerneck -13.6686 3.2762 2.2454
upperneck 42.933 8.71955 -9.42964
head 19.5569 2.565 -3.32201
rclavicle -1.58531e-014 4.37326e-015
rhumerus -27.4639 0.90517 -85.7986
rradius 26.5531
rwrist -8.36839
rhand -20.5924 13.5265
rfingers 7.12502
rthumb 5.76786 -16.375
lclavicle -1.58531e-014 4.37326e-015
lhumerus -25.5016 -2.57205 88.7083
lradius 25.8955
lwrist 2.62407
lhand -10.4465 32.2053
lfingers 7.12502
lthumb 15.5536 61.5998
rfemur -18.8382 2.24017 18.6954
rtibia 28.4295
rfoot -13.0258 -7.11827
rtoes -11.9605
lfemur -19.0314 3.46116 -15.1432
ltibia 31.996
lfoot -18.1504 8.03214
ltoes -13.9822
160
root 0.983359 17.9654 -5.59033 11.4098 -5.3957 -5.70227
lowerback -5.27103 1.17371 -3.15771
upperback 0.674974 1.68867 2.36741
thorax 3.49347 0.755893 4.36698
lowerneck -13.7422 3.18914 2.193
upperneck 42.9832 8.55988 -9.32073
head 19.5773 2.50487 -3.29195
rclavicle 1.17283e-014 2.98177e-015
rhumerus -27.3509 0.785761 -85.7909
rradius 26.6472
rwrist -8.35568
rhand -20.7514 13.6292
rfingers 7.12502
rthumb 5.61441 -16.2765
lclavicle 1.17283e-014 2.98177e-015
lhumerus -25.3914 -2.88935 88.6449
lradius 26.0697
lwrist 2.88573
lhand -10.0215 32.3533
lfingers 7.12502
lthumb 15.9629 61.7156
rfemur -19.0362 2.27908 18.674
rtibia 28.703
rfoot -12.9716 -7.31046
rtoes -11.9801
lfemur -19.1534 3.38368 -15.1647
ltibia 32.0113
lfoot -18.1463 7.96363
ltoes -14.0162
161
root 0.995445 17.967 -5.59581 11.4983 -5.34657 -5.58261
lowerback -5.11854 1.17533 -3.29801
upperback 0.713774 1.69927 2.27908
thorax 3.4455 0.759772 4.35101
lowerneck -13.8108 3.16805 2.18256
upperneck 43.0033 8.54009 -9.33274
head 19.6094 2.49138 -3.30134
rclavicle -3.25013e-014 6.16232e-015
rhumerus -27.2623 0.93342 -85.8365
rradius 26.733
rwrist -8.4263
rhand -20.8905 13.5769
rfingers 7.12502
rthumb 5.48007 -16.3322
lclavicle -3.25013e-014 6.16232e-015
lhumerus -25.2854 -2.56762 88.4498
lradius 26.1217
lwrist 2.6519
lhand -9.68878 32.5279
lfingers 7.12502
lthumb 16.2833 61.8642
rfemur -19.3079 2.27101 18.4956
rtibia 28.9792
rfoot -13.0975 -7.27258
rtoes -10.34
lfemur -19.3293 3.4125 -15.3369
ltibia 32.0509
lfoot -18.2442 7.87308
ltoes -14.1207
162
root 1.01163 17.9659 -5.60436 11.6725 -5.33802 -5.55279
lowerback -5.01348 1.17743 -3.36071
upperback 0.732917 1.70402 2.25989
thorax 3.40454 0.761791 4.36392
lowerneck -13.8611 3.1744 2.14668
upperneck 42.9989 8.59336 -9.39839
head 19.6334 2.49664 -3.31687
rclavicle -1.93815e-015 1.07344e-014
rhumerus -27.1495 1.21604 -85.815
rradius 26.7926
rwrist -8.54055
rhand -20.9334 13.4193
rfingers 7.12502
rthumb 5.43863 -16.491
lclavicle -1.93815e-015 1.07344e-014
lhumerus -25.3594 -2.50469 88.3867
lradius 26.4142
lwrist 2.79293
lhand -9.41481 32.8123
lfingers 7.12502
lthumb 16.5471 62.1268
rfemur -19.7202 2.13078 18.3913
rtibia 29.2573
rfoot -13.1458 -6.9695
rtoes -8.09901
lfemur -19.6006 3.57205 -15.4505
ltibia 32.1098
lfoot -18.2539 7.78328
ltoes -14.7467
163
root 1.02831 17.9654 -5.61306 11.8554 -5.32608 -5.59125
lowerback -4.9109 1.23656 -3.33295
upperback 0.717229 1.77974 2.22561
thorax 3.32473 0.802669 4.31418
lowerneck -13.783 3.2121 2.27371
upperneck 42.971 8.63063 -9.45
head 19.6087 2.53024 -3.35719
rclavicle 3.78188e-014 1.35174e-014
rhumerus -27.1082 1.238 -85.7441
rradius 26.8479
rwrist -8.56654
rhand -20.8431 13.0209
rfingers 7.12502
rthumb 5.52583 -16.887
lclavicle 3.78188e-014 1.35174e-014
lhumerus -25.4215 -2.42537 88.3062
lradius 26.5883
lwrist 2.74895
lhand -9.26829 32.8557
lfingers 7.12502
lthumb 16.6882 62.1583
rfemur -20.1379 1.99178 18.3765
rtibia 29.5445
rfoot -13.0436 -6.7732
rtoes -7.08102
lfemur -19.8861 3.69551 -15.4932
ltibia 32.1762
lfoot -18.1753 7.73585
ltoes -15.5788
164
root 1.04227 17.966 -5.61994 11.9555 -5.29271 -5.57185
lowerback -4.80269 1.26364 -3.42665
upperback 0.738804 1.81904 2.21886
thorax 3.27976 0.821326 4.35989
lowerneck -13.7041 3.26518 2.33168
upperneck 42.9243 8.68979 -9.44981
head 19.5646 2.5675 -3.35239
rclavicle 1.51573e-014 -6.75868e-015
rhumerus -27.0783 1.33179 -85.6451
rradius 26.9359
rwrist -8.65622
rhand -20.7324 12.5707
rfingers 7.12502
rthumb 5.63274 -17.3344
lclavicle 1.51573e-014 -6.75868e-015
lhumerus -25.387 -2.35568 88.2721
lradius 26.583
lwrist 2.75993
lhand -9.37049 32.7661
lfingers 7.12502
lthumb 16.5898 62.077
rfemur -20.4517 1.89698 18.3148
rtibia 29.8511
rfoot -12.9859 -6.72682
rtoes -6.92949
lfemur -20.0862 3.77809 -15.5784
ltibia 32.237
lfoot -18.1745 7.61492
ltoes -15.6277
165
root 1.05566 17.9626 -5.62223 11.9318 -5.36697 -5.54611
lowerback -4.63191 1.30199 -3.53086
upperback 0.835751 1.87204 2.21575
thorax 3.27575 0.844197 4.41581
lowerneck -13.6764 3.17246 2.09228
upperneck 42.9347 8.61577 -9.43079
head 19.539 2.50119 -3.31391
rclavicle -1.54555e-014 6.75868e-015
rhumerus -26.9783 1.5486 -85.553
rradius 26.993
rwrist -8.71839
rhand -20.6472 12.8221
rfingers 7.12502
rthumb 5.71501 -17.0808
lclavicle -1.54555e-014 6.75868e-015
lhumerus -25.3427 -2.35967 88.2417
lradius 26.6326
lwrist 2.91661
lhand -9.38148 32.8031
lfingers 7.12502
lthumb 16.5792 62.1149
rfemur -20.6402 1.84829 18.2484
rtibia 30.199
rfoot -12.8865 -6.7368
rtoes -7.99959
lfemur -20.1038 4.00248 -15.6864
ltibia 32.2723
lfoot -18.2074 7.48217
ltoes -15.2664
